<?xml version="1.0" encoding="UTF-8"?>
<svg id="Layer_1" data-name="Layer 1" xmlns="http://www.w3.org/2000/svg" viewBox="0 0 300 300">
  <defs>
    <style>
      .cls-1 {
        fill: #fff;
      }

      .cls-2 {
        fill: #001d35;
      }
    </style>
  </defs>
  <rect className="cls-1" x="-469.44" y="-867.22" width="2234.67" height="1701.33"/>
  <path className="cls-2" d="m147.08,207.45l-42.38,22.28c-4.6,2.42-9.97-1.49-9.09-6.61l8.09-47.19c.35-2.03-.33-4.11-1.8-5.55l-34.29-33.42c-3.72-3.63-1.67-9.94,3.47-10.69l47.38-6.88c2.04-.3,3.81-1.58,4.72-3.43l21.19-42.94c2.3-4.66,8.94-4.66,11.24,0l21.19,42.94c.91,1.85,2.68,3.13,4.72,3.43l47.38,6.88c5.14.75,7.19,7.06,3.47,10.69l-34.29,33.42c-1.48,1.44-2.15,3.51-1.8,5.55l8.09,47.19c.88,5.12-4.5,9.02-9.09,6.61l-42.38-22.28c-1.83-.96-4.01-.96-5.83,0Z"/>
</svg>