<?xml version="1.0" encoding="UTF-8"?>
<svg id="Layer_1" data-name="Layer 1" xmlns="http://www.w3.org/2000/svg" viewBox="0 0 300 300">
  <defs>
    <style>
      .cls-1 {
        fill: #fff;
      }

      .cls-2 {
        fill: #001d35;
      }
    </style>
  </defs>
  <rect className="cls-1" x="-1129.74" y="-867.22" width="2234.67" height="1701.33"/>
  <g>
    <path className="cls-2" d="m156.28,145.12l31.19-30.06c2.66-2.56,4.16-6.09,4.16-9.79v-23.34c0-7.51-6.08-13.59-13.59-13.59h-56.08c-7.51,0-13.59,6.08-13.59,13.59v23.34c0,3.69,1.5,7.22,4.16,9.79l31.19,30.06c3.5,3.38,9.05,3.38,12.56,0Z"/>
    <path className="cls-2" d="m143.72,154.88l-31.19,30.06c-2.66,2.56-4.16,6.09-4.16,9.79v23.34c0,7.51,6.08,13.59,13.59,13.59h56.08c7.51,0,13.59-6.08,13.59-13.59v-23.34c0-3.69-1.5-7.22-4.16-9.79l-31.19-30.06c-3.5-3.38-9.05-3.38-12.56,0Z"/>
  </g>
</svg>