<?xml version="1.0" encoding="UTF-8"?>
<svg id="Layer_1" data-name="Layer 1" xmlns="http://www.w3.org/2000/svg" viewBox="0 0 300 300">
  <defs>
    <style>
      .cls-1 {
        fill: #fff;
      }

      .cls-2 {
        fill: #001d35;
      }
    </style>
  </defs>
  <rect className="cls-1" x="-1129.74" y="-537" width="2234.67" height="1701.33"/>
  <g>
    <path className="cls-2" d="m157.59,194.99c-4.13.7-8.45.84-12.88.33-21.55-2.48-38.57-20.16-40.2-41.78-2.08-27.58,20.37-50.46,47.8-49.11,23.28,1.14,42.17,20.1,43.27,43.38.19,4.11-.16,8.1-.99,11.91-.52,2.41.77,4.84,3.08,5.7l23.47,8.81c2.73,1.03,5.76-.53,6.51-3.34,1.85-6.89,2.83-14.14,2.76-21.63-.4-43.39-35.78-79-79.16-79.66-44.98-.68-81.65,35.58-81.65,80.4s36,80.41,80.41,80.41c5.63,0,11.11-.59,16.41-1.7,2.81-.59,4.53-3.45,3.74-6.21l-6.93-24.02c-.7-2.44-3.13-3.91-5.63-3.49Z"/>
    <path className="cls-2" d="m150,118.22c-17.55,0-31.78,14.23-31.78,31.78s14.23,31.78,31.78,31.78c2.8,0,5.51-.37,8.1-1.05l-8-27.72c-1.05-3,1.29-5.16,4.2-3.88l26.19,9.83c.84-2.85,1.29-5.85,1.29-8.97,0-17.55-14.23-31.78-31.78-31.78Z"/>
  </g>
</svg>